<svg width="47" height="31" viewBox="0 0 47 31" fill="none" xmlns="http://www.w3.org/2000/svg">
<path d="M2.5 27C3.66667 27.6667 5 29 8 29C11 29 12 27 15 27C18 27 19 29 22.5 29C26 29 27 27 30 27C33 27 34.5 29 37.5 29C40.5 29 43.5 27 44.5 27" stroke="#753740" stroke-width="4" stroke-linecap="round"/>
<path d="M2 21C9 12.5 4.5 10.5 12.5 5.50001C21.828 -0.329967 30.8358 5.00001 28.5 5.00001C26.3358 6.50001 20.5 8.00001 20 12.5C19.5 17 24.8354 20.5 30.5 20.5C34.8795 20.5 35 19 44.5 20.5" stroke="#753740" stroke-width="4" stroke-linecap="round"/>
</svg>
