<svg width="114" height="94" viewBox="0 0 114 94" fill="none" xmlns="http://www.w3.org/2000/svg">
<path d="M22.0625 76.21C20.4325 76.21 19.2625 75.89 18.5525 75.25C17.8525 74.61 17.4875 73.57 17.4575 72.13C17.4175 68.75 17.3975 65.395 17.3975 62.065C17.3975 58.735 17.4175 55.38 17.4575 52H19.8425C19.8225 54.25 19.8075 56.505 19.7975 58.765C19.7875 61.025 19.7875 63.285 19.7975 65.545C19.8075 67.805 19.8125 70.06 19.8125 72.31C19.8125 72.97 19.9775 73.44 20.3075 73.72C20.6475 73.99 21.2325 74.125 22.0625 74.125C22.8825 74.125 23.4575 73.99 23.7875 73.72C24.1175 73.44 24.2825 72.97 24.2825 72.31C24.2925 70.06 24.3025 67.805 24.3125 65.545C24.3225 63.285 24.3275 61.025 24.3275 58.765C24.3275 56.505 24.3125 54.25 24.2825 52H26.6525C26.6925 55.38 26.7125 58.735 26.7125 62.065C26.7225 65.395 26.7025 68.75 26.6525 72.13C26.6425 73.57 26.2775 74.61 25.5575 75.25C24.8475 75.89 23.6825 76.21 22.0625 76.21ZM30.0601 76V52H34.9351L36.2701 59.605L38.2801 73.84H39.5551L39.2551 60.49L39.1201 52H41.5201V76H36.4951L35.0401 67.39L33.3451 54.13H32.0251L32.2951 67.015L32.4601 76H30.0601ZM49.378 76.21C47.768 76.21 46.603 75.89 45.883 75.25C45.173 74.6 44.793 73.535 44.743 72.055C44.733 71.485 44.723 70.955 44.713 70.465C44.713 69.965 44.718 69.465 44.728 68.965C44.738 68.455 44.753 67.905 44.773 67.315H47.068C47.028 68.205 47.003 69.06 46.993 69.88C46.993 70.69 47.018 71.515 47.068 72.355C47.098 73.025 47.283 73.495 47.623 73.765C47.973 74.025 48.558 74.155 49.378 74.155C50.148 74.155 50.698 74.025 51.028 73.765C51.368 73.495 51.558 73.025 51.598 72.355C51.638 71.925 51.658 71.46 51.658 70.96C51.668 70.45 51.663 69.945 51.643 69.445C51.633 68.945 51.618 68.475 51.598 68.035C51.578 67.235 51.418 66.635 51.118 66.235C50.818 65.835 50.328 65.55 49.648 65.38L47.983 64.975C47.163 64.775 46.518 64.485 46.048 64.105C45.578 63.715 45.243 63.195 45.043 62.545C44.843 61.895 44.728 61.07 44.698 60.07C44.688 59.42 44.683 58.745 44.683 58.045C44.693 57.335 44.703 56.62 44.713 55.9C44.743 54.91 44.918 54.115 45.238 53.515C45.558 52.915 46.053 52.48 46.723 52.21C47.403 51.93 48.288 51.79 49.378 51.79C50.938 51.79 52.068 52.11 52.768 52.75C53.468 53.39 53.843 54.45 53.893 55.93C53.913 56.55 53.918 57.235 53.908 57.985C53.898 58.725 53.883 59.505 53.863 60.325H51.553C51.583 59.405 51.598 58.57 51.598 57.82C51.608 57.07 51.598 56.34 51.568 55.63C51.538 54.96 51.358 54.495 51.028 54.235C50.698 53.965 50.138 53.83 49.348 53.83C48.558 53.83 47.993 53.965 47.653 54.235C47.323 54.495 47.138 54.96 47.098 55.63C47.058 56.39 47.038 57.125 47.038 57.835C47.038 58.545 47.058 59.29 47.098 60.07C47.118 60.93 47.238 61.565 47.458 61.975C47.678 62.375 48.058 62.64 48.598 62.77L50.173 63.13C51.113 63.35 51.853 63.655 52.393 64.045C52.943 64.435 53.338 64.955 53.578 65.605C53.828 66.255 53.968 67.065 53.998 68.035C54.018 68.455 54.028 68.9 54.028 69.37C54.028 69.83 54.023 70.29 54.013 70.75C54.003 71.21 53.993 71.645 53.983 72.055C53.923 73.535 53.538 74.6 52.828 75.25C52.128 75.89 50.978 76.21 49.378 76.21ZM57.189 76V52H61.644C63.144 52 64.229 52.3 64.899 52.9C65.579 53.5 65.939 54.495 65.979 55.885C66.029 57.215 66.054 58.41 66.054 59.47C66.054 60.53 66.029 61.62 65.979 62.74C65.929 64.12 65.564 65.11 64.884 65.71C64.204 66.31 63.114 66.61 61.614 66.61H59.574V76H57.189ZM59.574 64.465H61.614C62.344 64.465 62.849 64.34 63.129 64.09C63.419 63.84 63.579 63.415 63.609 62.815C63.649 62.045 63.674 61.305 63.684 60.595C63.694 59.875 63.694 59.13 63.684 58.36C63.674 57.58 63.649 56.725 63.609 55.795C63.589 55.185 63.434 54.76 63.144 54.52C62.854 54.27 62.354 54.145 61.644 54.145H59.574V64.465ZM68.8199 76V52H71.2049V76H68.8199ZM79.3107 76.225C77.7207 76.225 76.5507 75.905 75.8007 75.265C75.0607 74.625 74.6807 73.565 74.6607 72.085C74.6407 70.615 74.6257 69.22 74.6157 67.9C74.6057 66.57 74.6007 65.27 74.6007 64C74.6007 62.73 74.6057 61.435 74.6157 60.115C74.6257 58.795 74.6407 57.4 74.6607 55.93C74.6807 54.48 75.0607 53.435 75.8007 52.795C76.5507 52.145 77.7207 51.82 79.3107 51.82C80.9007 51.82 82.0707 52.145 82.8207 52.795C83.5707 53.445 83.9757 54.49 84.0357 55.93C84.0557 56.45 84.0657 56.95 84.0657 57.43C84.0757 57.9 84.0757 58.37 84.0657 58.84C84.0557 59.31 84.0357 59.81 84.0057 60.34H81.6357C81.6557 59.8 81.6657 59.29 81.6657 58.81C81.6757 58.33 81.6807 57.85 81.6807 57.37C81.6807 56.89 81.6707 56.385 81.6507 55.855C81.6207 55.095 81.4307 54.575 81.0807 54.295C80.7307 54.005 80.1407 53.86 79.3107 53.86C78.5007 53.86 77.9207 54.005 77.5707 54.295C77.2307 54.575 77.0507 55.095 77.0307 55.855C77.0007 57.425 76.9757 58.87 76.9557 60.19C76.9357 61.5 76.9257 62.775 76.9257 64.015C76.9257 65.245 76.9357 66.52 76.9557 67.84C76.9757 69.15 77.0007 70.595 77.0307 72.175C77.0507 72.935 77.2357 73.46 77.5857 73.75C77.9357 74.04 78.5107 74.185 79.3107 74.185C80.1907 74.185 80.8107 74.04 81.1707 73.75C81.5407 73.46 81.7407 72.935 81.7707 72.175C81.7907 71.715 81.8007 71.265 81.8007 70.825C81.8007 70.375 81.7957 69.875 81.7857 69.325C81.7757 68.765 81.7607 68.105 81.7407 67.345H84.1257C84.1657 68.305 84.1857 69.155 84.1857 69.895C84.1957 70.625 84.1857 71.355 84.1557 72.085C84.0957 73.565 83.6857 74.625 82.9257 75.265C82.1757 75.905 80.9707 76.225 79.3107 76.225ZM91.8348 76.21C90.2048 76.21 89.0298 75.88 88.3098 75.22C87.5898 74.55 87.2198 73.455 87.1998 71.935C87.1798 70.415 87.1648 69.01 87.1548 67.72C87.1448 66.42 87.1398 65.16 87.1398 63.94C87.1398 62.71 87.1448 61.46 87.1548 60.19C87.1648 58.91 87.1798 57.54 87.1998 56.08C87.2198 54.55 87.5898 53.455 88.3098 52.795C89.0298 52.125 90.2048 51.79 91.8348 51.79C93.4548 51.79 94.6198 52.125 95.3298 52.795C96.0498 53.455 96.4248 54.55 96.4548 56.08C96.4948 57.54 96.5198 58.91 96.5298 60.19C96.5498 61.46 96.5598 62.71 96.5598 63.94C96.5598 65.16 96.5498 66.42 96.5298 67.72C96.5198 69.01 96.4948 70.415 96.4548 71.935C96.4248 73.455 96.0498 74.55 95.3298 75.22C94.6198 75.88 93.4548 76.21 91.8348 76.21ZM91.8348 74.155C92.6748 74.155 93.2548 74.005 93.5748 73.705C93.9048 73.395 94.0748 72.83 94.0848 72.01C94.1248 70.47 94.1548 69.055 94.1748 67.765C94.1948 66.475 94.2048 65.225 94.2048 64.015C94.2048 62.805 94.1948 61.555 94.1748 60.265C94.1548 58.965 94.1248 57.54 94.0848 55.99C94.0748 55.17 93.9048 54.605 93.5748 54.295C93.2548 53.985 92.6748 53.83 91.8348 53.83C90.9948 53.83 90.4098 53.985 90.0798 54.295C89.7598 54.605 89.5898 55.17 89.5698 55.99C89.5298 57.5 89.4998 58.895 89.4798 60.175C89.4698 61.455 89.4648 62.7 89.4648 63.91C89.4648 65.12 89.4698 66.38 89.4798 67.69C89.4998 68.99 89.5298 70.43 89.5698 72.01C89.5898 72.83 89.7598 73.395 90.0798 73.705C90.4098 74.005 90.9948 74.155 91.8348 74.155Z" fill="white"/>
<path fill-rule="evenodd" clip-rule="evenodd" d="M68.721 29.6549C72.0945 26.5309 74.2063 22.0636 74.2063 17.1032C74.2063 7.65734 66.549 0 57.1032 0C47.6573 0 40 7.65734 40 17.1032C40 22.6148 42.6072 27.5176 46.6555 30.6454V7.15561V6.65561H47.1555H63.707H63.9439L64.0939 6.83899L68.608 12.3561L68.721 12.4943V12.6727V29.6549ZM67.721 30.5122V12.8512L63.47 7.65561H47.6555V31.3623C50.3624 33.1594 53.6105 34.2063 57.1032 34.2063C61.1149 34.2063 64.8041 32.8251 67.721 30.5122ZM50.6664 15.2626C51.3092 15.2626 51.8401 14.9658 52.3084 14.6136C52.5439 14.4364 52.7791 14.233 53.0133 14.0279L53.1024 13.9498C53.3114 13.7665 53.5234 13.5806 53.7515 13.3946C54.7717 12.5626 56.0845 11.7517 58.2734 11.7517C58.4636 11.7517 58.635 11.7526 58.7889 11.7546C58.5308 11.9355 58.2615 12.1561 58.0494 12.4182C57.8556 12.6576 57.6923 12.9511 57.6358 13.2998C57.5784 13.6546 57.6384 14.0254 57.8262 14.401C57.9561 14.6608 58.2001 14.8094 58.4008 14.8987C58.6149 14.994 58.8705 15.0615 59.1378 15.1119C59.6747 15.2132 60.3475 15.2612 61.0337 15.2824C61.9641 15.3113 62.9832 15.2914 63.7785 15.276C64.1476 15.2688 64.4687 15.2626 64.7101 15.2626V14.2626C64.4354 14.2626 64.0935 14.2693 63.7102 14.2768C62.9276 14.2922 61.9725 14.311 61.0647 14.2829C60.3934 14.2621 59.7825 14.2159 59.3231 14.1293C59.0921 14.0857 58.9214 14.0359 58.8075 13.9852C58.7495 13.9593 58.721 13.9399 58.7096 13.9312C58.615 13.7328 58.6034 13.5803 58.623 13.4596C58.6442 13.3283 58.7095 13.1921 58.8266 13.0474C59.0733 12.7427 59.4709 12.4914 59.8473 12.2656L59.8978 12.2353C60.0501 12.1442 60.2204 12.0424 60.3355 11.9498C60.3871 11.9082 60.5141 11.8038 60.5778 11.6407C60.617 11.5402 60.6381 11.4021 60.587 11.2538C60.5385 11.1128 60.4454 11.0235 60.3743 10.9728C60.249 10.8832 60.1011 10.8485 60.0063 10.8302C59.8937 10.8084 59.7586 10.7935 59.6048 10.7826C59.2958 10.7607 58.8603 10.7517 58.2734 10.7517C55.7811 10.7517 54.2517 11.6962 53.1195 12.6196C52.8765 12.8178 52.6503 13.0162 52.4422 13.1987L52.3546 13.2755C52.1189 13.4819 51.9094 13.6624 51.7073 13.8144C51.3005 14.1204 50.985 14.2626 50.6664 14.2626V15.2626ZM59.714 11.1663C59.7189 11.1611 59.722 11.1585 59.7223 11.1585C59.7226 11.1585 59.7201 11.1611 59.714 11.1663ZM50.6664 22.2844C51.3092 22.2844 51.8401 21.9877 52.3084 21.6354C52.5439 21.4583 52.7791 21.2548 53.0133 21.0497L53.1024 20.9716C53.3115 20.7883 53.5234 20.6024 53.7515 20.4164C54.7717 19.5844 56.0845 18.7735 58.2734 18.7735C58.4636 18.7735 58.635 18.7745 58.7889 18.7765C58.5308 18.9573 58.2615 19.178 58.0494 19.4401C57.8556 19.6794 57.6923 19.9729 57.6358 20.3216C57.5784 20.6764 57.6384 21.0472 57.8262 21.4229C57.9561 21.6826 58.2001 21.8312 58.4008 21.9205C58.6149 22.0159 58.8705 22.0834 59.1378 22.1338C59.6747 22.235 60.3475 22.283 61.0337 22.3042C61.9641 22.3331 62.9833 22.3133 63.7786 22.2978C64.1476 22.2906 64.4687 22.2844 64.7101 22.2844V21.2844C64.4354 21.2844 64.0935 21.2911 63.7102 21.2987C62.9276 21.3141 61.9725 21.3329 61.0647 21.3047C60.3934 21.2839 59.7825 21.2377 59.3231 21.1511C59.0921 21.1075 58.9214 21.0577 58.8075 21.007C58.7495 20.9812 58.721 20.9617 58.7096 20.953C58.615 20.7546 58.6034 20.6021 58.623 20.4814C58.6442 20.3501 58.7095 20.2139 58.8266 20.0693C59.0733 19.7645 59.4709 19.5132 59.8473 19.2874L59.8978 19.2572C60.0502 19.166 60.2204 19.0642 60.3355 18.9716C60.3871 18.93 60.5141 18.8257 60.5778 18.6625C60.617 18.5621 60.6381 18.4239 60.587 18.2757C60.5385 18.1346 60.4454 18.0454 60.3743 17.9946C60.249 17.9051 60.1011 17.8703 60.0063 17.852C59.8937 17.8302 59.7586 17.8154 59.6048 17.8045C59.2958 17.7826 58.8603 17.7735 58.2734 17.7735C55.7811 17.7735 54.2517 18.718 53.1195 19.6415C52.8764 19.8397 52.6503 20.038 52.4422 20.2205L52.3546 20.2974C52.1189 20.5037 51.9094 20.6842 51.7073 20.8363C51.3005 21.1423 50.985 21.2844 50.6664 21.2844V22.2844ZM59.714 18.1881C59.7189 18.1829 59.722 18.1803 59.7223 18.1803C59.7225 18.1804 59.7201 18.1829 59.714 18.1881ZM50.6664 29.3062C51.3092 29.3062 51.8401 29.0095 52.3084 28.6572C52.5439 28.4801 52.7791 28.2766 53.0133 28.0715L53.1024 27.9935C53.3114 27.8101 53.5234 27.6243 53.7515 27.4383C54.7717 26.6062 56.0845 25.7953 58.2734 25.7953C58.4636 25.7953 58.635 25.7963 58.7889 25.7983C58.5308 25.9791 58.2615 26.1998 58.0494 26.4619C57.8556 26.7012 57.6923 26.9947 57.6358 27.3434C57.5784 27.6982 57.6384 28.069 57.8262 28.4447C57.9561 28.7044 58.2001 28.853 58.4008 28.9424C58.6149 29.0377 58.8705 29.1052 59.1378 29.1556C59.6747 29.2568 60.3475 29.3048 61.0337 29.3261C61.9641 29.3549 62.9833 29.3351 63.7786 29.3196C64.1476 29.3125 64.4687 29.3062 64.7101 29.3062V28.3062C64.4354 28.3062 64.0935 28.313 63.7102 28.3205C62.9276 28.3359 61.9725 28.3547 61.0647 28.3265C60.3934 28.3057 59.7825 28.2595 59.3231 28.1729C59.0921 28.1294 58.9214 28.0795 58.8075 28.0288C58.7495 28.003 58.721 27.9835 58.7096 27.9749C58.615 27.7764 58.6034 27.6239 58.623 27.5033C58.6442 27.372 58.7095 27.2357 58.8266 27.0911C59.0733 26.7863 59.4709 26.535 59.8473 26.3092L59.8977 26.279C60.0501 26.1878 60.2204 26.086 60.3355 25.9934C60.3871 25.9518 60.5141 25.8475 60.5778 25.6843C60.617 25.5839 60.6381 25.4457 60.587 25.2975C60.5385 25.1564 60.4454 25.0672 60.3743 25.0164C60.249 24.9269 60.1011 24.8921 60.0063 24.8738C59.8937 24.8521 59.7586 24.8372 59.6048 24.8263C59.2958 24.8044 58.8603 24.7953 58.2734 24.7953C55.7811 24.7953 54.2517 25.7399 53.1195 26.6633C52.8764 26.8615 52.6503 27.0598 52.4422 27.2423L52.3546 27.3192C52.1189 27.5255 51.9094 27.7061 51.7073 27.8581C51.3005 28.1641 50.985 28.3062 50.6664 28.3062V29.3062ZM59.714 25.2099C59.7189 25.2048 59.722 25.2022 59.7223 25.2022C59.7226 25.2022 59.7201 25.2047 59.714 25.2099Z" fill="white"/>
</svg>
